<?xml version="1.0" encoding="utf-8"?>
<!-- Generator: Adobe Illustrator 26.5.0, SVG Export Plug-In . SVG Version: 6.00 Build 0)  -->
<svg version="1.1" id="레이어_1" xmlns="http://www.w3.org/2000/svg" xmlns:xlink="http://www.w3.org/1999/xlink" x="0px"
	 y="0px" viewBox="0 0 80 80" style="enable-background:new 0 0 80 80;" xml:space="preserve">
<style type="text/css">
	.st0{fill:#F8F8F8;}
	.st1{fill:#FFFFFF;}
	.st2{fill:#FFC42D;}
	.st3{fill:#FFC007;stroke:#FFDB71;}
	.st4{font-family:'Arial-BoldMT';}
	.st5{font-size:12px;}
	.st6{fill:#00A7E1;}
</style>
<g transform="translate(-822 -1510)">
	<circle class="st0" cx="862" cy="1550" r="40"/>
	<g transform="translate(8 9)">
		<g>
			<path class="st1" d="M836,1530h37c1.1,0,2,0.9,2,2v24c0,1.1-0.9,2-2,2h-37c-1.1,0-2-0.9-2-2v-24C834,1530.9,834.9,1530,836,1530z
				"/>
			<path class="st1" d="M872,1556h-38v-13h16.4c0,0.7,0.3,1.3,0.8,1.7c0.5,0.5,1.2,0.7,1.8,0.7c1.4,0,2.5-1,2.6-2.4H872V1556z"/>
			<g transform="translate(8.675)">
				<g>
					<path class="st2" d="M846.1,1522c6.7,0,12.2,5.4,12.2,12.2c0,6.7-5.4,12.2-12.2,12.2c-6.7,0-12.2-5.4-12.2-12.2
						C834,1527.4,839.4,1522,846.1,1522z"/>
				</g>
				<ellipse class="st3" cx="846.1" cy="1534.2" rx="9.6" ry="9.6"/>
				<text transform="matrix(1 0 0 1 842.626 1538.106)" class="st1 st4 st5">P</text>
			</g>
			<g>
				<path class="st6" d="M873,1560h-37c-1.1,0-2-0.9-2-2v-16c0-1.1,0.9-2,2-2h15.2c0.4,1.5,1.7,2.5,3.3,2.5c1.5,0,2.9-1,3.3-2.5H873
					c1.1,0,2,0.9,2,2v16C875,1559.1,874.1,1560,873,1560z"/>
			</g>
		</g>
		<path class="st1" d="M849,1549h11c0.6,0,1,0.4,1,1l0,0c0,0.6-0.4,1-1,1h-11c-0.6,0-1-0.4-1-1l0,0C848,1549.5,848.4,1549,849,1549z
			"/>
	</g>
</g>
</svg>
