<svg xmlns="http://www.w3.org/2000/svg" width="80" height="80" viewBox="0 0 80 80">
    <g data-name="그룹 15608" transform="translate(-40 -396.7)">
        <circle data-name="타원 666" cx="40" cy="40" r="40" transform="translate(40 396.7)" style="fill:#f8f8f8"/>
        <g data-name="그룹 31928">
            <path d="M0 35.914h37.857V13H0z" transform="translate(60.722 418.651)" style="fill-rule:evenodd;fill:#ffc942"/>
            <path d="M0 12.951 17.877.295c.6-.393.453-.393 1.052 0l18.928 12.656z" style="fill:#ffc42d;fill-rule:evenodd" transform="translate(60.722 418.7)"/>
            <path d="M5 30.906h28.891V6H5z" transform="translate(60.703 418.677)" style="fill:#00a7e1;fill-rule:evenodd"/>
            <path d="M24.583 10.036a2.531 2.531 0 0 0-.906.009 2.97 2.97 0 0 0-1.664.76c-.494.492-.991.98-1.481 1.471a.429.429 0 0 1-.33.134h-4.818a.274.274 0 0 0-.285.191c-.109.239-.232.47-.349.705-.171.344-.171.344.152.439h.011c.507.082 1.014.161 1.521.246.6.1 1.209.207 1.813.312a.706.706 0 0 1 .11.032l-.564.518c-.414.394-.837.78-1.24 1.182a.507.507 0 0 1-.393.157c-.513 0-1.028.009-1.541 0H14.6l-1-.062a.215.215 0 0 0-.179.1l-.4.678A.1.1 0 0 0 13 17a.087.087 0 0 0 .058.059l.775.285c.445.168.893.325 1.348.454a3.672 3.672 0 0 0 3.463-.643 10.39 10.39 0 0 0 .946-.94q2.244-2.287 4.48-4.588a6.65 6.65 0 0 0 .73-.874c.017-.035.031-.07.049-.1.194-.392.125-.544-.266-.617z" transform="translate(60.673 418.662)" style="fill:#fff"/>
            <path d="M18.874 23.571h.109a1 1 0 0 1 .443-.493L37.857 13v22.914H0V13l18.432 10.078a.992.992 0 0 1 .442.493z" transform="translate(60.722 418.651)" style="fill:#ffc42d;fill-rule:evenodd"/>
        </g>
    </g>
</svg>
