<svg xmlns="http://www.w3.org/2000/svg" width="80" height="80" viewBox="0 0 80 80">
    <defs>
        <clipPath id="1mxijdjn7a">
            <path data-name="패스 19078" d="M0-80h80V0H0z" style="fill:none"/>
        </clipPath>
    </defs>
    <g data-name="그룹 15608">
        <g data-name="그룹 34451">
            <g data-name="그룹 34450" style="clip-path:url(#1mxijdjn7a)" transform="translate(0 80)">
                <g data-name="그룹 34447">
                    <path data-name="패스 19075" d="M0 0a40 40 0 0 1 40 40A40 40 0 0 1 0 80 40 40 0 0 1 0 0" style="fill:#f8f8f8" transform="translate(40 -80)"/>
                </g>
                <g data-name="그룹 34448">
                    <path data-name="패스 19076" d="M0 0v5.63a2.25 2.25 0 0 1-2.25 2.25h-31.5A2.25 2.25 0 0 1-36 5.63V-.006a3.375 3.375 0 0 0 3.375-3.37A3.375 3.375 0 0 0-36-6.751v-5.63a2.25 2.25 0 0 1 2.25-2.245h31.5A2.25 2.25 0 0 1 0-12.376v5.631A3.375 3.375 0 0 0-3.375-3.37 3.375 3.375 0 0 0 0 0z" style="fill:#ffc42c;fill-rule:evenodd" transform="translate(57.278 -36.627)"/>
                </g>
                <g data-name="그룹 34449">
                    <path data-name="패스 19077" d="M0 0a3.464 3.464 0 0 0-1.193.012 3.975 3.975 0 0 0-2.193.966c-.65.625-1.306 1.245-1.952 1.868a.575.575 0 0 1-.435.171h-6.347a.36.36 0 0 0-.375.242c-.143.3-.306.6-.46.895-.221.442-.221.442.2.558h.014c.662.1 1.336.2 2 .312.8.128 1.592.263 2.389.4a.9.9 0 0 1 .144.04l-.743.663c-.545.5-1.1.993-1.633 1.5a.679.679 0 0 1-.517.2c-.676 0-1.355.012-2.031 0h-.035l-1.314-.078a.285.285 0 0 0-.236.126l-.529.861a.126.126 0 0 0-.016.11.108.108 0 0 0 .076.075l1.02.362c.586.213 1.177.413 1.776.577a4.983 4.983 0 0 0 4.563-.817 13.644 13.644 0 0 0 1.245-1.2q2.957-2.906 5.9-5.828A8.415 8.415 0 0 0 .288.907C.31.863.329.819.352.774.606.285.514.092 0 0" style="fill:#00a7e0" transform="translate(46.663 -44.457)"/>
                </g>
            </g>
        </g>
    </g>
</svg>
