<svg xmlns="http://www.w3.org/2000/svg" width="73" height="73" viewBox="0 0 73 73">
    <g transform="translate(4.049 3.035)">
        <circle cx="33.465" cy="33.465" r="33.465" style="fill:#67d6ff"/>
        <circle data-name="Oval" cx="29.408" cy="29.408" r="29.408" transform="translate(4.056 4.056)" style="fill:#fff"/>
        <path d="M4.056 2.028a2.028 2.028 0 0 0-4.056 0V14.75c.788 1.79.788 1.79 1.294 1.9a2.244 2.244 0 0 0 .412.118 3.463 3.463 0 0 0 .36.046c.175.015.4.026.692.036.509.017 1.23.027 2.149.033 1.6.01 3.778.006 6.389-.011a1343.317 1343.317 0 0 0 7.894-.074l1.008-.012h.365a2.028 2.028 0 0 0-.053-4.056h-.363l-1.005.012a1631.378 1631.378 0 0 1-7.873.074c-2.595.017-4.756.022-6.336.011l-.877-.008z" transform="rotate(-45 48.06 -9.022)" style="fill:#ff801b"/>
    </g>
</svg>
