<?xml version="1.0" encoding="utf-8"?>
<!-- Generator: Adobe Illustrator 26.5.0, SVG Export Plug-In . SVG Version: 6.00 Build 0)  -->
<svg version="1.1" id="레이어_1" xmlns="http://www.w3.org/2000/svg" xmlns:xlink="http://www.w3.org/1999/xlink" x="0px"
	 y="0px" viewBox="0 0 60 60" style="enable-background:new 0 0 60 60;" xml:space="preserve">
<style type="text/css">
	.st0{clip-path:url(#SVGID_00000130626181187440679410000004857033675898839435_);}
	.st1{fill-rule:evenodd;clip-rule:evenodd;fill:#FFC42D;}
	.st2{fill:#00A7E1;}
</style>
<g>
	<g>
		<defs>
			<rect id="SVGID_1_" y="11.2" width="60" height="37.5"/>
		</defs>
		<clipPath id="SVGID_00000007406243981045005550000001715484571887647161_">
			<use xlink:href="#SVGID_1_"  style="overflow:visible;"/>
		</clipPath>
		<g style="clip-path:url(#SVGID_00000007406243981045005550000001715484571887647161_);">
			<path class="st1" d="M60,35.6V45c0,2.1-1.7,3.8-3.8,3.8H3.8C1.7,48.8,0,47.1,0,45v-9.4c3.1,0,5.6-2.5,5.6-5.6
				c0-3.1-2.5-5.6-5.6-5.6c0,0,0,0,0,0V15c0-2.1,1.7-3.7,3.8-3.7h52.5c2.1,0,3.8,1.7,3.8,3.8v9.4c-3.1,0-5.6,2.5-5.6,5.6
				S56.9,35.6,60,35.6L60,35.6L60,35.6z"/>
			<path class="st2" d="M42.3,22.6c-0.7-0.1-1.3-0.1-2,0c-1.4,0.1-2.6,0.7-3.7,1.6c-1.1,1-2.2,2.1-3.3,3.1c-0.2,0.2-0.5,0.3-0.7,0.3
				H22.1c-0.3,0-0.5,0.1-0.6,0.4c-0.2,0.5-0.5,1-0.8,1.5c-0.4,0.7-0.4,0.7,0.3,0.9h0c1.1,0.2,2.2,0.3,3.3,0.5c1.3,0.2,2.7,0.4,4,0.7
				c0.1,0,0.2,0,0.2,0.1l-1.2,1.1c-0.9,0.8-1.8,1.7-2.7,2.5c-0.2,0.2-0.5,0.3-0.9,0.3c-1.1,0-2.3,0-3.4,0h-0.1l-2.2-0.1
				c-0.2,0-0.3,0.1-0.4,0.2l-0.9,1.4c0,0.1,0,0.1,0,0.2c0,0.1,0.1,0.1,0.1,0.1l1.7,0.6c1,0.4,2,0.7,3,1c2.6,0.8,5.4,0.3,7.6-1.4
				c0.7-0.6,1.4-1.3,2.1-2c3.3-3.2,6.6-6.5,9.8-9.7c0.6-0.6,1.1-1.2,1.6-1.9c0-0.1,0.1-0.1,0.1-0.2C43.3,23,43.2,22.7,42.3,22.6"/>
		</g>
	</g>
</g>
</svg>
