<?xml version="1.0" encoding="utf-8"?>
<!-- Generator: Adobe Illustrator 26.5.0, SVG Export Plug-In . SVG Version: 6.00 Build 0)  -->
<svg version="1.1" id="레이어_1" xmlns="http://www.w3.org/2000/svg" xmlns:xlink="http://www.w3.org/1999/xlink" x="0px"
	 y="0px" viewBox="0 0 60 60" style="enable-background:new 0 0 60 60;" xml:space="preserve">
<style type="text/css">
	.st0{clip-path:url(#SVGID_00000132066057266594940800000010003679909347607440_);}
	.st1{fill:#F2F2F2;}
	.st2{fill:#FFFFFF;}
	.st3{fill:#FFC007;}
	.st4{fill:none;stroke:#FFDB71;}
	.st5{clip-path:url(#SVGID_00000160868959334382073290000015399078919019421855_);}
	.st6{clip-path:url(#SVGID_00000062912641129058379850000011441603936951491519_);}
	.st7{font-family:'Arial-BoldMT';}
	.st8{font-size:17.778px;}
	.st9{fill:#00A7E1;}
</style>
<g>
	<g>
		<defs>
			<rect id="SVGID_1_" y="1.4" width="60" height="57.1"/>
		</defs>
		<clipPath id="SVGID_00000078767572883792221340000018127420229122355844_">
			<use xlink:href="#SVGID_1_"  style="overflow:visible;"/>
		</clipPath>
		<g style="clip-path:url(#SVGID_00000078767572883792221340000018127420229122355844_);">
			<path class="st1" d="M2.2,13h55.6c1.2,0,2.2,1,2.2,2.2l0,0v36.7c0,1.2-1,2.2-2.2,2.2l0,0H2.2c-1.2,0-2.2-1-2.2-2.2c0,0,0,0,0,0
				V15.2C0,14,1,13,2.2,13L2.2,13"/>
			<path class="st2" d="M55.6,51.9H0v-20h24c0,1,0.4,2,1.1,2.7c1.5,1.5,3.9,1.5,5.4,0c0.7-0.7,1.1-1.6,1.1-2.6h24V51.9z"/>
			<path class="st3" d="M30.5,1.4c9.8,0,17.8,8,17.8,17.8S40.3,37,30.5,37s-17.8-8-17.8-17.8S20.7,1.4,30.5,1.4
				C30.5,1.4,30.5,1.4,30.5,1.4"/>
			<path class="st3" d="M30.5,5.2c7.8,0,14.1,6.3,14.1,14.1c0,7.8-6.3,14.1-14.1,14.1c-7.8,0-14.1-6.3-14.1-14.1
				C16.4,11.5,22.7,5.2,30.5,5.2C30.5,5.2,30.5,5.2,30.5,5.2"/>
			<circle class="st4" cx="30.5" cy="19.2" r="14.1"/>
			<g>
				<g>
					<g>
						<defs>
							<rect id="SVGID_00000151505893086545058040000008423783354539237791_" x="25.4" y="9.6" width="11.9" height="21.2"/>
						</defs>
						<clipPath id="SVGID_00000071535865215257132640000018443542680009172110_">
							<use xlink:href="#SVGID_00000151505893086545058040000008423783354539237791_"  style="overflow:visible;"/>
						</clipPath>
						<g style="clip-path:url(#SVGID_00000071535865215257132640000018443542680009172110_);">
							<g>
								<g>
									<defs>
										<rect id="SVGID_00000028288334373650699380000013679994328136575385_" x="25.4" y="9.6" width="11.9" height="21.2"/>
									</defs>
									<clipPath id="SVGID_00000032623317678438309340000009960565699241228447_">
										<use xlink:href="#SVGID_00000028288334373650699380000013679994328136575385_"  style="overflow:visible;"/>
									</clipPath>
									<g style="clip-path:url(#SVGID_00000032623317678438309340000009960565699241228447_);">
										<text transform="matrix(1 0 0 1 25.356 25.238)" class="st2 st7 st8">P</text>
									</g>
								</g>
							</g>
						</g>
					</g>
				</g>
			</g>
			<path class="st9" d="M57.8,58.5H2.2c-1.2,0-2.2-1-2.2-2.2c0,0,0,0,0,0V30.8c0-1.2,1-2.2,2.2-2.2l0,0h23c0.6,2.6,3.3,4.3,5.9,3.6
				c1.8-0.4,3.2-1.8,3.6-3.6h23c1.2,0,2.2,1,2.2,2.2l0,0v25.6C60,57.6,59,58.5,57.8,58.5L57.8,58.5"/>
			<path class="st2" d="M22.8,40.8h14.4c0.9,0,1.7,0.7,1.7,1.6c0,0.9-0.7,1.7-1.6,1.7c0,0-0.1,0-0.1,0H22.8c-0.9,0-1.7-0.7-1.7-1.6
				S21.8,40.8,22.8,40.8C22.7,40.8,22.8,40.8,22.8,40.8"/>
		</g>
	</g>
</g>
</svg>
