<?xml version="1.0" encoding="utf-8"?>
<!-- Generator: Adobe Illustrator 26.5.0, SVG Export Plug-In . SVG Version: 6.00 Build 0)  -->
<svg version="1.1" id="레이어_1" xmlns="http://www.w3.org/2000/svg" xmlns:xlink="http://www.w3.org/1999/xlink" x="0px"
	 y="0px" viewBox="0 0 60 60" style="enable-background:new 0 0 60 60;" xml:space="preserve">
<style type="text/css">
	.st0{clip-path:url(#SVGID_00000121252062877326816990000010606015192659211964_);}
	.st1{fill:#ffffff;}
</style>
<g>
	<g>
		<defs>
			<rect id="SVGID_1_" y="7" width="60" height="45.9"/>
		</defs>
		<clipPath id="SVGID_00000155839814399140632950000013255106828311382416_">
			<use xlink:href="#SVGID_1_"  style="overflow:visible;"/>
		</clipPath>
		<g style="clip-path:url(#SVGID_00000155839814399140632950000013255106828311382416_);">
			<path class="st1" d="M53.1,17.6c-0.3-0.3-0.7-0.3-1,0c-0.4,0.4-1,0.7-1.6,0.6c-1.8-0.1-4-2.6-6.1-5.1c-2.9-3.3-5.8-6.7-9-6.1
				c-1.4,0.3-2.7,1.2-3.5,2.4c-0.8,1.1-1.5,2.3-2,3.5l-1.7-1l-3.2,5.6c-9.4-3.7-20,1-23.7,10.4s1,20,10.4,23.7
				c9.4,3.7,20-1,23.7-10.4c2.9-7.4,0.7-15.9-5.6-20.9l3.2-5.6l-1.8-1.1c1.4-3.2,2.9-4.9,4.5-5.2c2.4-0.5,5.1,2.6,7.7,5.6
				c2.4,2.8,4.7,5.4,7.1,5.6c0.1,0,0.1,0,0.2,0c0.9,0,1.8-0.4,2.4-1C53.3,18.4,53.3,17.9,53.1,17.6 M10.9,47c-0.1,0-0.2-0.1-0.3-0.1
				c-0.1,0-0.1,0-0.2-0.1l-0.2-0.1c-0.1-0.1-0.3-0.1-0.5-0.2s-0.4-0.2-0.6-0.3c-0.1-0.1-0.2-0.1-0.3-0.2l-0.3-0.2
				c-0.1-0.1-0.2-0.1-0.3-0.2l-0.3-0.2c-0.1-0.1-0.2-0.2-0.3-0.3L7.4,45L7.3,45l-0.1-0.1c-0.2-0.2-0.5-0.4-0.7-0.6
				c-0.1-0.1-0.2-0.2-0.3-0.4s-0.2-0.3-0.3-0.4s-0.2-0.3-0.3-0.4l-0.2-0.2c-0.1-0.1-0.1-0.1-0.2-0.2l-0.3-0.4
				c-0.1-0.1-0.1-0.2-0.1-0.2l-0.1-0.2l-0.1-0.2c0-0.1-0.1-0.2-0.1-0.2c-0.1-0.2-0.2-0.3-0.2-0.5c-0.3-0.7-0.6-1.4-0.8-2.1l-0.1-0.5
				l0-0.1l0-0.1l0-0.1l-0.1-0.3C3,37.2,3,36.8,3,36.5c0-0.2,0-0.4,0-0.6c0-0.1,0-0.2,0-0.3v-0.5c0-0.1,0-0.2,0-0.3
				c0-0.2,0-0.4,0-0.5c0-0.1,0-0.2,0-0.3c0-0.1,0-0.2,0-0.3l0-0.3c0-0.1,0-0.2,0-0.3c0-0.2,0.1-0.3,0.1-0.5c0-0.2,0.1-0.3,0.1-0.5
				c0.1-0.3,0.2-0.6,0.3-0.9l0-0.1l0-0.1L3.7,31c0.1-0.1,0.1-0.3,0.2-0.4s0.1-0.2,0.2-0.4L4.1,30c0-0.1,0.1-0.1,0.1-0.2l0.2-0.3
				c0.1-0.1,0.1-0.2,0.2-0.3c0.1-0.2,0.2-0.4,0.3-0.5s0.2-0.3,0.3-0.4l0.1-0.2c0-0.1,0.1-0.1,0.1-0.2c0.1-0.1,0.2-0.2,0.2-0.2
				c0.1-0.1,0.2-0.2,0.2-0.2s0,0.1-0.1,0.3s-0.1,0.4-0.2,0.7c0,0.2-0.1,0.3-0.1,0.5s-0.1,0.4-0.1,0.6S5.3,30,5.3,30.2
				s-0.1,0.5-0.1,0.7l0,0.4l0,0.2c0,0,0,0.1,0,0.1s0,0.1,0,0.1C5.1,32,5,32.3,5,32.6c0,0.1,0,0.3,0,0.4s0,0.3,0,0.4
				c0,0.1,0,0.3,0,0.4v0.2c0,0.1,0,0.2,0,0.2c0,0.2,0,0.3,0,0.5C5,34.9,5,35,5,35l0,0.2l0,0.2c0,0.1,0,0.2,0,0.2
				c0,0.2,0,0.3,0.1,0.5c0,0.2,0.1,0.3,0.1,0.5l0,0.1c0,0,0,0.1,0,0.1l0,0.2l0,0.2l0,0.1l0,0.1l0,0.1l0.1,0.5
				c0.2,0.6,0.4,1.2,0.6,1.8c0.1,0.1,0.1,0.3,0.2,0.4c0,0.1,0.1,0.1,0.1,0.2l0.1,0.2L6.6,41c0,0.1,0.1,0.1,0.1,0.2
				c0.1,0.1,0.1,0.3,0.2,0.4c0,0.1,0.1,0.1,0.1,0.2L7.2,42c0.1,0.1,0.1,0.3,0.2,0.4s0.2,0.3,0.2,0.4c0,0.1,0.1,0.1,0.1,0.2
				s0.1,0.1,0.1,0.2c0.2,0.2,0.3,0.5,0.5,0.7l0.1,0.1L8.4,44l0.1,0.2l0.2,0.3c0.2,0.2,0.3,0.4,0.5,0.6l0.4,0.5
				c0.1,0.2,0.3,0.3,0.4,0.4s0.2,0.3,0.4,0.4s0.2,0.2,0.3,0.3s0.2,0.2,0.2,0.2c0.1,0.1,0.2,0.2,0.2,0.2S11,47.1,10.9,47"/>
			<path class="st1" d="M59.3,17.4h-3.6c-0.4,0-0.7,0.3-0.7,0.7c0,0.4,0.3,0.7,0.7,0.7h3.6c0.4,0,0.7-0.3,0.7-0.7
				C60,17.7,59.7,17.4,59.3,17.4"/>
			<path class="st1" d="M53.2,15.1c0.1,0.1,0.2,0.1,0.4,0.1c0.3,0,0.5-0.1,0.6-0.4l1.8-3.1c0.2-0.3,0.1-0.8-0.3-1
				c-0.3-0.2-0.8-0.1-1,0.3c0,0,0,0,0,0L53,14.1C52.8,14.5,52.9,14.9,53.2,15.1C53.2,15.1,53.2,15.1,53.2,15.1"/>
			<path class="st1" d="M48.7,14.8c0.2,0.3,0.6,0.5,1,0.3c0.3-0.2,0.5-0.6,0.3-1L48.2,11c-0.2-0.3-0.6-0.5-1-0.3
				c-0.3,0.2-0.5,0.6-0.3,1L48.7,14.8z"/>
			<path class="st1" d="M49.7,21.2c-0.3-0.2-0.8-0.1-1,0.3c0,0,0,0,0,0L47,24.5c-0.2,0.3-0.1,0.8,0.3,1s0.8,0.1,1-0.3c0,0,0,0,0,0
				l1.8-3.1C50.2,21.8,50.1,21.4,49.7,21.2C49.7,21.2,49.7,21.2,49.7,21.2"/>
			<path class="st1" d="M54.2,21.4c-0.2-0.3-0.6-0.5-1-0.3c-0.3,0.2-0.5,0.6-0.3,1l1.8,3.1c0.2,0.4,0.6,0.5,1,0.3
				c0.4-0.2,0.5-0.6,0.3-1c0,0,0-0.1,0-0.1L54.2,21.4z"/>
		</g>
	</g>
</g>
</svg>
