<?xml version="1.0" encoding="utf-8"?>
<!-- Generator: Adobe Illustrator 26.5.0, SVG Export Plug-In . SVG Version: 6.00 Build 0)  -->
<svg version="1.1" id="레이어_1" xmlns="http://www.w3.org/2000/svg" xmlns:xlink="http://www.w3.org/1999/xlink" x="0px"
	 y="0px" viewBox="0 0 60 60" style="enable-background:new 0 0 60 60;" xml:space="preserve">
<style type="text/css">
	.st0{clip-path:url(#SVGID_00000063610236654536672010000010064905412871430590_);}
	.st1{fill-rule:evenodd;clip-rule:evenodd;fill:#00A7E1;}
	.st2{fill:#FFC42D;}
	.st3{fill:#00A7E1;}
</style>
<g>
	<g>
		<defs>
			<rect id="SVGID_1_" y="2.4" width="60" height="55.3"/>
		</defs>
		<clipPath id="SVGID_00000082327670767975452240000014727497638915356574_">
			<use xlink:href="#SVGID_1_"  style="overflow:visible;"/>
		</clipPath>
		<g style="clip-path:url(#SVGID_00000082327670767975452240000014727497638915356574_);">
			<path class="st1" d="M30,8.2l5-4.9c1.2-1.2,3.1-1.2,4.2,0c1.2,1.2,1.2,3.1,0,4.2l0,0l-7.1,7.1c-1.2,1.2-3.1,1.2-4.2,0l-7.1-7.1
				c-1.2-1.2-1.2-3.1,0-4.2c1.2-1.2,3.1-1.2,4.2,0L30,8.2z"/>
			<path class="st2" d="M6.9,19.6h46.2c1.6,0,2.9,1.3,2.9,2.9l0,0v32.2c0,1.6-1.3,2.9-2.9,2.9c0,0,0,0,0,0H6.9
				c-1.6,0-2.9-1.3-2.9-2.9c0,0,0,0,0,0V22.5C4,20.9,5.3,19.6,6.9,19.6"/>
			<path class="st2" d="M2.9,13.6h54.2c1.6,0,2.9,1.3,2.9,2.9v4.2c0,1.6-1.3,2.9-2.9,2.9H2.9c-1.6,0-2.9-1.3-2.9-2.9v-4.2
				C0,14.9,1.3,13.6,2.9,13.6"/>
			<path class="st3" d="M4,23.6h52v6H4V23.6z"/>
			<path class="st3" d="M27,13.6h6v44h-6V13.6z"/>
		</g>
	</g>
</g>
</svg>
