<?xml version="1.0" encoding="utf-8"?>
<!-- Generator: Adobe Illustrator 26.5.0, SVG Export Plug-In . SVG Version: 6.00 Build 0)  -->
<svg version="1.1" id="레이어_1" xmlns="http://www.w3.org/2000/svg" xmlns:xlink="http://www.w3.org/1999/xlink" x="0px"
	 y="0px" viewBox="0 0 60 60" style="enable-background:new 0 0 60 60;" xml:space="preserve">
<style type="text/css">
	.st0{clip-path:url(#SVGID_00000010994508842146808880000012938049781229941377_);}
	.st1{fill-rule:evenodd;clip-rule:evenodd;fill:#FFC42D;}
	.st2{clip-path:url(#SVGID_00000181808836229612489170000012220116295903623592_);}
	.st3{clip-path:url(#SVGID_00000106834316135356132750000006392880265468342410_);}
	.st4{fill:#00A7E1;}
	.st5{font-family:'Roboto-Bold';}
	.st6{font-size:28.319px;}
</style>
<g>
	<g>
		<defs>
			<rect id="SVGID_1_" y="13.8" width="60" height="32.4"/>
		</defs>
		<clipPath id="SVGID_00000091695663511431659620000008745864210508492450_">
			<use xlink:href="#SVGID_1_"  style="overflow:visible;"/>
		</clipPath>
		<g transform="translate(0 .001)" style="clip-path:url(#SVGID_00000091695663511431659620000008745864210508492450_);">
			<path class="st1" d="M15.7,45.3L1.2,32.7c-1.5-1.3-1.7-3.6-0.4-5.1c0,0,0,0,0,0c0.1-0.1,0.2-0.2,0.4-0.4l14.5-12.6
				c0.7-0.6,1.5-0.9,2.4-0.9h38.3c2,0,3.6,1.6,3.6,3.6v25.2c0,2-1.6,3.6-3.6,3.6H18.1C17.2,46.2,16.4,45.9,15.7,45.3"/>
			<g>
				<g>
					<g>
						<defs>
							<rect id="SVGID_00000126315111760216759480000009403883966273224834_" x="20.5" y="19.8" width="31.9" height="20.9"/>
						</defs>
						<clipPath id="SVGID_00000127043309279718227930000001968037645286902203_">
							<use xlink:href="#SVGID_00000126315111760216759480000009403883966273224834_"  style="overflow:visible;"/>
						</clipPath>
						<g style="clip-path:url(#SVGID_00000127043309279718227930000001968037645286902203_);">
							<g>
								<g>
									<g>
										<defs>
											<rect id="SVGID_00000142866790630829531010000010790557059153159042_" x="20.5" y="19.8" width="31.9" height="20.9"/>
										</defs>
										<clipPath id="SVGID_00000058580795163558950640000006525112340038479756_">
											<use xlink:href="#SVGID_00000142866790630829531010000010790557059153159042_"  style="overflow:visible;"/>
										</clipPath>
										<g style="clip-path:url(#SVGID_00000058580795163558950640000006525112340038479756_);">
											<text transform="matrix(6.123234e-17 -1 1 6.123234e-17 44.733 40.7018)" class="st4 st5 st6">%</text>
										</g>
									</g>
								</g>
							</g>
						</g>
					</g>
				</g>
			</g>
		</g>
	</g>
</g>
</svg>
