<?xml version="1.0" encoding="utf-8"?>
<!-- Generator: Adobe Illustrator 26.5.0, SVG Export Plug-In . SVG Version: 6.00 Build 0)  -->
<svg version="1.1" id="레이어_1" xmlns="http://www.w3.org/2000/svg" xmlns:xlink="http://www.w3.org/1999/xlink" x="0px"
	 y="0px" viewBox="0 0 60 60" style="enable-background:new 0 0 60 60;" xml:space="preserve">
<style type="text/css">
	.st0{fill:#FFC942;}
	.st1{clip-path:url(#SVGID_00000083808584713034914730000014029335756747712896_);}
	.st2{fill-rule:evenodd;clip-rule:evenodd;fill:#FFC942;}
	.st3{fill:#06A8E6;}
	.st4{fill:#FFFFFF;}
</style>
<g>
	<path class="st0" d="M0,22.1h60v36.3H0V22.1z"/>
	<g>
		<g>
			<defs>
				<rect id="SVGID_1_" y="1.6" width="60" height="56.8"/>
			</defs>
			<clipPath id="SVGID_00000085953380189623196530000008096564497855275454_">
				<use xlink:href="#SVGID_1_"  style="overflow:visible;"/>
			</clipPath>
			<g style="clip-path:url(#SVGID_00000085953380189623196530000008096564497855275454_);">
				<path class="st2" d="M0,22.1L28.3,2.1c0.9-0.6,0.7-0.6,1.7,0l30,20.1H0z"/>
				<path class="st3" d="M7.9,11.1h45.8v39.5H7.9V11.1z"/>
				<path class="st4" d="M38.9,17.4c-0.5-0.1-1-0.1-1.4,0c-1,0.1-1.9,0.5-2.6,1.2c-0.8,0.8-1.6,1.6-2.3,2.3
					c-0.1,0.1-0.3,0.2-0.5,0.2h-7.6c-0.2,0-0.4,0.1-0.5,0.3c-0.2,0.4-0.4,0.7-0.6,1.1c-0.3,0.5-0.3,0.5,0.2,0.7h0
					c0.8,0.1,1.6,0.3,2.4,0.4c1,0.2,1.9,0.3,2.9,0.5c0.1,0,0.1,0,0.2,0l-0.9,0.8c-0.7,0.6-1.3,1.2-2,1.9c-0.2,0.2-0.4,0.3-0.6,0.2
					c-0.8,0-1.6,0-2.4,0h0l-1.6-0.1c-0.1,0-0.2,0.1-0.3,0.2l-0.6,1.1c0,0,0,0.1,0,0.1c0,0,0,0.1,0.1,0.1l1.2,0.5
					c0.7,0.3,1.4,0.5,2.1,0.7c1.9,0.6,4,0.2,5.5-1c0.5-0.5,1-1,1.5-1.5c2.4-2.4,4.7-4.8,7.1-7.3c0.4-0.4,0.8-0.9,1.2-1.4
					c0-0.1,0-0.1,0.1-0.2C39.6,17.8,39.5,17.5,38.9,17.4"/>
				<path class="st2" d="M29.9,38.9h0.2c0.1-0.3,0.4-0.6,0.7-0.8l29.2-16v36.3H0V22.1l29.2,16C29.5,38.3,29.8,38.5,29.9,38.9"/>
			</g>
		</g>
	</g>
</g>
</svg>
